<!-- Generated by IcoMoon.io -->
<svg version="1.1" xmlns="http://www.w3.org/2000/svg" width="32" height="32" viewBox="0 0 32 32">
<title>AC</title>
<path d="M15.488 3.2c-1.488 0-2.944 0.512-4.112 1.44-1.152 0.944-1.952 2.24-2.256 3.696l-0.112 0.576c-0.032 0.128-0.032 0.256-0.016 0.384 0.032 0.128 0.080 0.256 0.144 0.368 0.080 0.112 0.176 0.208 0.288 0.288 0.112 0.064 0.24 0.128 0.368 0.144 0.128 0.032 0.272 0.032 0.4 0s0.256-0.080 0.368-0.16c0.112-0.064 0.192-0.16 0.272-0.272 0.064-0.112 0.112-0.24 0.144-0.368l0.112-0.576c0.224-1.072 0.848-2.032 1.744-2.688 0.896-0.64 2-0.944 3.104-0.832 1.12 0.112 2.144 0.608 2.896 1.424 0.736 0.816 1.152 1.872 1.168 2.96 0 1.184-0.48 2.304-1.328 3.136s-1.984 1.296-3.184 1.296h-14.496c-0.272 0-0.512 0.112-0.704 0.288-0.192 0.192-0.288 0.448-0.288 0.704s0.096 0.512 0.288 0.688c0.192 0.192 0.432 0.304 0.704 0.304h14.496c1.696-0.048 3.312-0.736 4.496-1.936s1.856-2.8 1.856-4.464c0-1.68-0.672-3.28-1.856-4.48s-2.784-1.888-4.496-1.92zM26.992 12.048c-1.328 0-2.592 0.528-3.536 1.44-0.944 0.928-1.456 2.176-1.456 3.488 0 0.256 0.096 0.512 0.288 0.704 0.192 0.176 0.432 0.288 0.704 0.288s0.512-0.112 0.704-0.288c0.192-0.192 0.304-0.448 0.304-0.704 0-0.576 0.16-1.152 0.496-1.648 0.336-0.48 0.8-0.864 1.344-1.088 0.56-0.208 1.152-0.272 1.744-0.16 0.576 0.112 1.104 0.4 1.536 0.8 0.416 0.416 0.704 0.944 0.816 1.52s0.048 1.168-0.176 1.712c-0.224 0.528-0.608 0.992-1.104 1.328-0.496 0.32-1.072 0.496-1.664 0.496h-26c-0.272 0-0.512 0.096-0.704 0.288-0.192 0.176-0.288 0.432-0.288 0.688 0 0.272 0.096 0.512 0.288 0.704 0.192 0.176 0.432 0.288 0.704 0.288h19.504c0.656 0 1.296 0.256 1.76 0.72s0.736 1.088 0.736 1.744c0 0.656-0.272 1.28-0.736 1.744-0.48 0.448-1.104 0.72-1.776 0.704-0.592 0-1.168-0.208-1.632-0.576-0.448-0.384-0.752-0.912-0.864-1.488v-0.064c-0.016-0.128-0.064-0.256-0.144-0.368-0.064-0.112-0.144-0.208-0.256-0.288s-0.24-0.128-0.368-0.16c-0.128-0.032-0.256-0.048-0.4-0.016-0.128 0.016-0.256 0.064-0.368 0.144-0.112 0.064-0.208 0.16-0.288 0.256-0.064 0.112-0.128 0.24-0.144 0.368-0.032 0.128-0.032 0.256-0.016 0.384l0.016 0.064c0.176 1.040 0.72 1.984 1.536 2.672 0.816 0.672 1.856 1.056 2.928 1.056 1.2 0 2.336-0.48 3.184-1.312 0.848-0.816 1.328-1.952 1.328-3.12 0-0.912-0.272-1.76-0.752-2.464h2.752c1.328 0 2.592-0.528 3.536-1.44 0.944-0.928 1.472-2.176 1.472-3.488s-0.528-2.56-1.472-3.488c-0.944-0.912-2.208-1.44-3.536-1.44z"></path>
<path d="M20.544 5.76c-0.176-0.224-0.352-0.432-0.56-0.64-1.184-1.2-2.784-1.888-4.496-1.92-0.512 0-1.024 0.048-1.504 0.176-0.96 0.224-1.84 0.656-2.608 1.264-0.496 0.4-0.912 0.864-1.264 1.376-0.416 0.608-0.72 1.264-0.912 1.984-0.016 0.112-0.048 0.224-0.080 0.336l-0.112 0.576c-0.032 0.128-0.032 0.256-0.016 0.384 0.032 0.128 0.080 0.256 0.144 0.368 0.080 0.112 0.176 0.208 0.288 0.288 0.112 0.064 0.24 0.128 0.368 0.144 0.128 0.032 0.272 0.032 0.4 0s0.256-0.080 0.368-0.16c0.112-0.064 0.192-0.16 0.272-0.272 0.064-0.112 0.112-0.24 0.144-0.368l0.112-0.576c0.048-0.256 0.128-0.496 0.224-0.72 0.304-0.784 0.832-1.456 1.52-1.968 0 0 0.016 0 0.016-0.016 0.752-0.544 1.664-0.832 2.592-0.848 0.016 0 0.032 0 0.064 0 0.080 0 0.176 0.016 0.272 0.016 0.048 0 0.112 0 0.16 0.016 1.12 0.112 2.144 0.608 2.896 1.424 0.048 0.064 0.096 0.112 0.144 0.176 0.448 0.528 0.752 1.152 0.912 1.824 0.064 0.304 0.096 0.64 0.112 0.96 0 0.384-0.064 0.768-0.16 1.12-0.112 0.432-0.288 0.848-0.528 1.232-0.176 0.272-0.4 0.544-0.64 0.784-0.224 0.224-0.448 0.416-0.704 0.576-0.384 0.24-0.8 0.432-1.248 0.56-0.064 0.016-0.112 0.032-0.176 0.048-0.032 0-0.080 0.016-0.112 0.016-0.304 0.064-0.624 0.096-0.944 0.096h-14.496c-0.272 0-0.512 0.112-0.704 0.288-0.192 0.192-0.288 0.448-0.288 0.704s0.096 0.512 0.288 0.688c0.192 0.192 0.432 0.304 0.704 0.304h14.496c0.112-0.016 0.224-0.016 0.336-0.016 0.064-0.016 0.144-0.016 0.208-0.032 0.016 0 0.032 0 0.032 0 0.224-0.032 0.464-0.064 0.672-0.112 1.232-0.272 2.368-0.88 3.248-1.776 0.048-0.048 0.112-0.112 0.16-0.16 0.528-0.592 0.96-1.248 1.248-1.968 0.224-0.608 0.384-1.232 0.432-1.872 0-0.16 0.016-0.32 0.016-0.464 0-0.72-0.128-1.44-0.368-2.096-0.208-0.624-0.528-1.216-0.928-1.744zM27.728 12.112c-0.24-0.048-0.48-0.064-0.736-0.064-1.328 0-2.592 0.528-3.536 1.44-0.128 0.144-0.256 0.272-0.368 0.416-0.064 0.080-0.144 0.176-0.208 0.272-0.576 0.816-0.88 1.792-0.88 2.8 0 0.16 0.032 0.32 0.112 0.464 0.048 0.080 0.096 0.16 0.176 0.24 0.128 0.128 0.304 0.208 0.48 0.256 0.064 0.016 0.144 0.032 0.224 0.032 0.272 0 0.512-0.112 0.704-0.288 0.192-0.192 0.304-0.448 0.304-0.704 0-0.576 0.16-1.152 0.496-1.648 0.112-0.16 0.256-0.32 0.4-0.464 0.272-0.256 0.592-0.464 0.944-0.624 0.432-0.16 0.88-0.24 1.328-0.208 0.144 0 0.272 0.016 0.416 0.048 0.48 0.096 0.928 0.304 1.312 0.608 0.080 0.064 0.144 0.128 0.224 0.192 0.416 0.416 0.704 0.944 0.816 1.52 0.032 0.192 0.048 0.384 0.064 0.576v0 0.016c-0.016 0.384-0.080 0.752-0.24 1.12 0 0.016-0.016 0.032-0.016 0.048-0.096 0.224-0.224 0.432-0.368 0.624-0.208 0.24-0.448 0.464-0.72 0.656-0.448 0.288-0.976 0.464-1.52 0.48-0.048 0.016-0.096 0.016-0.144 0.016h-26c-0.272 0-0.512 0.096-0.704 0.288-0.192 0.176-0.288 0.432-0.288 0.688 0 0.272 0.096 0.512 0.288 0.704 0.192 0.176 0.432 0.288 0.704 0.288h19.504c0.544 0 1.056 0.176 1.488 0.48 0.096 0.080 0.192 0.16 0.272 0.24 0.352 0.336 0.576 0.768 0.672 1.232 0.016 0.048 0.032 0.096 0.032 0.144 0.016 0.128 0.032 0.24 0.032 0.368 0 0.576-0.208 1.136-0.592 1.568-0.048 0.064-0.096 0.112-0.144 0.176-0.48 0.448-1.104 0.72-1.776 0.704-0.592 0-1.168-0.208-1.632-0.576-0.448-0.384-0.752-0.912-0.864-1.488v-0.064c-0.016-0.112-0.064-0.224-0.112-0.32 0-0.016-0.016-0.032-0.032-0.048-0.064-0.112-0.144-0.208-0.256-0.288s-0.224-0.128-0.352-0.16c0 0 0 0-0.016 0 0 0 0 0 0 0-0.064-0.016-0.128-0.032-0.192-0.032s-0.128 0-0.208 0.016c-0.096 0.016-0.192 0.048-0.272 0.096-0.032 0-0.064 0.016-0.096 0.048-0.112 0.064-0.208 0.16-0.288 0.256v0c-0.064 0.112-0.128 0.24-0.144 0.368-0.032 0.128-0.032 0.256-0.016 0.384l0.016 0.064c0.176 1.040 0.72 1.984 1.536 2.672 0.080 0.064 0.176 0.128 0.256 0.192 0.768 0.56 1.712 0.864 2.672 0.864 0.976 0 1.904-0.32 2.672-0.864 0.064-0.048 0.112-0.096 0.176-0.144 0.112-0.096 0.24-0.192 0.336-0.304 0.224-0.208 0.4-0.432 0.576-0.672 0.208-0.32 0.384-0.656 0.512-1.024 0.16-0.464 0.24-0.944 0.24-1.424 0-0.224-0.016-0.432-0.048-0.64 0-0.064-0.016-0.144-0.032-0.208-0.112-0.592-0.352-1.136-0.672-1.616h2.752c1.232 0 2.4-0.448 3.312-1.248 0.080-0.064 0.16-0.128 0.224-0.192 0.496-0.496 0.88-1.072 1.12-1.712 0.224-0.56 0.352-1.152 0.352-1.776 0-1.312-0.528-2.56-1.472-3.488-0.304-0.304-0.656-0.56-1.040-0.768-0.432-0.256-0.896-0.432-1.392-0.544-0.112-0.032-0.24-0.048-0.368-0.064z"></path>
</svg>
