<!-- Generated by IcoMoon.io -->
<svg version="1.1" xmlns="http://www.w3.org/2000/svg" width="32" height="32" viewBox="0 0 32 32">
<title>Air-conditioner</title>
<path fill="none" stroke-linejoin="round" stroke-linecap="butt" stroke-miterlimit="4" stroke-width="2.2857" stroke="#000" d="M3.261 1.082c-0.579 0-1.128 0.229-1.539 0.64s-0.64 0.96-0.64 1.539v10.88c0 0.579 0.229 1.128 0.64 1.539s0.96 0.64 1.539 0.64h23.939c0.579 0 1.128-0.229 1.539-0.64s0.64-0.96 0.64-1.539v-10.88c0-0.579-0.229-1.128-0.64-1.539s-0.96-0.64-1.539-0.64h-23.939z"></path>
<path fill="none" stroke-linejoin="round" stroke-linecap="butt" stroke-miterlimit="4" stroke-width="2.2857" stroke="#000" d="M23.939 16.32v-4.358c0-0.579-0.229-1.128-0.64-1.539s-0.96-0.64-1.539-0.64h-13.059c-0.579 0-1.128 0.229-1.539 0.64s-0.64 0.96-0.64 1.539v4.358M5.44 27.2h0.213c0.808 0 1.585-0.32 2.149-0.884 0.579-0.579 0.899-1.356 0.899-2.164v-2.392M25.021 27.2h-0.213c-0.808 0-1.585-0.32-2.149-0.884-0.579-0.579-0.899-1.356-0.899-2.164v-2.392M15.238 29.379lNaNNaN"></path>
</svg>
