<!-- Generated by IcoMoon.io -->
<svg version="1.1" xmlns="http://www.w3.org/2000/svg" width="32" height="32" viewBox="0 0 32 32">
<title>arcticons_freezer</title>
<path fill="none" stroke-linejoin="round" stroke-linecap="butt" stroke-miterlimit="4" stroke-width="2.0800" stroke="#000" d="M23.392 2.992c1.104 0 2 0.896 2 2v20.384c0 1.104-0.896 2-2 2h-14.8c-1.104 0-2-0.896-2-2v-20.384c0-1.104 0.896-2 2-2h14.8z"></path>
<path fill="none" stroke-linejoin="round" stroke-linecap="butt" stroke-miterlimit="4" stroke-width="2.0800" stroke="#000" d="M6.592 13.12h18.8M10.304 10.56v-4.048M10.304 19.44v-4.048M8.416 27.376v0.704c0 0.24 0.096 0.464 0.272 0.64 0.16 0.176 0.4 0.272 0.64 0.272h1.648c0.24 0 0.464-0.096 0.64-0.272 0.176-0.16 0.272-0.4 0.272-0.64v-0.704M20.096 27.376v0.704c0 0.24 0.096 0.48 0.256 0.64 0.176 0.176 0.416 0.272 0.656 0.272h1.648c0.24 0 0.48-0.096 0.656-0.272 0.16-0.16 0.256-0.4 0.256-0.64lNaNNaN"></path>
</svg>
