<?xml version="1.0" encoding="UTF-8"?>
<!DOCTYPE svg PUBLIC "-//W3C//DTD SVG 1.1//EN" "http://www.w3.org/Graphics/SVG/1.1/DTD/svg11.dtd">
<svg xmlns="http://www.w3.org/2000/svg" version="1.1" width="20px" height="20px" style="shape-rendering:geometricPrecision; text-rendering:geometricPrecision; image-rendering:optimizeQuality; fill-rule:evenodd; clip-rule:evenodd" xmlns:xlink="http://www.w3.org/1999/xlink">
<g><path style="opacity:1" fill="#fcfcfc" d="M -0.5,-0.5 C 6.16667,-0.5 12.8333,-0.5 19.5,-0.5C 19.5,6.16667 19.5,12.8333 19.5,19.5C 12.8333,19.5 6.16667,19.5 -0.5,19.5C -0.5,12.8333 -0.5,6.16667 -0.5,-0.5 Z"/></g>
<g><path style="opacity:1" fill="#60636a" d="M 16.5,4.5 C 15.8333,5.16667 15.1667,5.83333 14.5,6.5C 13.3064,5.22275 11.6397,4.55608 9.5,4.5C 7.3603,4.55608 5.69363,5.22275 4.5,6.5C 3.83333,5.83333 3.16667,5.16667 2.5,4.5C 2.61071,3.88258 2.94404,3.38258 3.5,3C 5.33333,2.83333 7.16667,2.66667 9,2.5C 11.8655,2.29989 14.3655,2.96656 16.5,4.5 Z"/></g>
<g><path style="opacity:1" fill="#262c37" d="M 2.5,4.5 C 3.16667,5.16667 3.83333,5.83333 4.5,6.5C 7.83333,6.5 11.1667,6.5 14.5,6.5C 15.1667,5.83333 15.8333,5.16667 16.5,4.5C 16.5,6.16667 16.5,7.83333 16.5,9.5C 11.6367,9.18054 6.97005,9.51388 2.5,10.5C 1.83333,10.5 1.5,10.1667 1.5,9.5C 2.30071,7.95819 2.63404,6.29152 2.5,4.5 Z"/></g>
<g><path style="opacity:1" fill="#e8ebee" d="M 14.5,6.5 C 11.1667,6.5 7.83333,6.5 4.5,6.5C 5.69363,5.22275 7.3603,4.55608 9.5,4.5C 11.6397,4.55608 13.3064,5.22275 14.5,6.5 Z"/></g>
<g><path style="opacity:1" fill="#4c515b" d="M 1.5,9.5 C 1.5,10.1667 1.83333,10.5 2.5,10.5C 2.5,11.5 2.5,12.5 2.5,13.5C 7.16667,13.5 11.8333,13.5 16.5,13.5C 16.5,12.1667 16.5,10.8333 16.5,9.5C 17.9931,10.3121 18.6598,11.6455 18.5,13.5C 18.1667,14.5 17.8333,15.5 17.5,16.5C 12.1667,15.1667 6.83333,15.1667 1.5,16.5C 0.203078,14.0268 0.203078,11.6934 1.5,9.5 Z"/></g>
<g><path style="opacity:1" fill="#fafbfb" d="M 16.5,9.5 C 16.5,10.8333 16.5,12.1667 16.5,13.5C 11.8333,13.5 7.16667,13.5 2.5,13.5C 2.5,12.5 2.5,11.5 2.5,10.5C 6.97005,9.51388 11.6367,9.18054 16.5,9.5 Z"/></g>
</svg>
