<!-- Generated by IcoMoon.io -->
<svg version="1.1" xmlns="http://www.w3.org/2000/svg" width="32" height="32" viewBox="0 0 32 32">
<title>clarity</title>
<path fill="none" stroke-linejoin="miter" stroke-linecap="butt" stroke-miterlimit="4" stroke-width="2" stroke="#000" d="M3.333 22.509v-13.019c0-0.505 0.285-0.967 0.737-1.193l12-6c0.375-0.188 0.817-0.188 1.193 0l10.667 5.333c0.452 0.226 0.737 0.688 0.737 1.193v13.019c0 0.505-0.285 0.967-0.737 1.193l-12 6c-0.375 0.188-0.817 0.188-1.193 0l-10.667-5.333c-0.452-0.226-0.737-0.688-0.737-1.193z"></path>
<path fill="none" stroke-linejoin="miter" stroke-linecap="butt" stroke-miterlimit="4" stroke-width="2" stroke="#000" d="M3.333 8.667l12 6M15.333 14.667v14.667M15.333 14.667l6.667-3.333M28.667 8l-6.667 3.333M22 11.333l-11.333-6"></path>
</svg>
