<!-- Generated by IcoMoon.io -->
<svg version="1.1" xmlns="http://www.w3.org/2000/svg" width="32" height="32" viewBox="0 0 32 32">
<title>heart</title>
<path fill="none" stroke-linejoin="round" stroke-linecap="round" stroke-miterlimit="4" stroke-width="2" stroke="#000" d="M27.277 7.39c-0.652-0.652-1.425-1.169-2.277-1.522s-1.764-0.534-2.686-0.534c-0.922 0-1.834 0.182-2.686 0.534s-1.625 0.87-2.277 1.522l-1.352 1.352-1.352-1.352c-1.316-1.316-3.101-2.056-4.963-2.056s-3.646 0.739-4.963 2.056c-1.316 1.316-2.056 3.101-2.056 4.963s0.739 3.646 2.056 4.963l11.277 11.277 11.277-11.277c0.652-0.652 1.169-1.425 1.522-2.277s0.534-1.764 0.534-2.686c0-0.922-0.182-1.834-0.534-2.686s-0.87-1.625-1.522-2.277z"></path>
</svg>
