<!-- Generated by IcoMoon.io -->
<svg version="1.1" xmlns="http://www.w3.org/2000/svg" width="32" height="32" viewBox="0 0 32 32">
<title>Hob</title>
<path fill="none" stroke="#101828" stroke-linejoin="miter" stroke-linecap="butt" stroke-miterlimit="4" stroke-width="2.5263" d="M27.789 4.48c0.371 0 0.724 0.152 0.977 0.421 0.269 0.253 0.421 0.606 0.421 0.994v18.24c0 0.371-0.152 0.724-0.421 0.994-0.253 0.253-0.606 0.404-0.977 0.404h-25.263c-0.387 0-0.741-0.152-0.994-0.404-0.269-0.269-0.421-0.623-0.421-0.994v-18.24c0-0.387 0.152-0.741 0.421-0.994 0.253-0.269 0.606-0.421 0.994-0.421h25.263zM10.947 4.48lNaNNaN"></path>
<path fill="none" stroke="#101828" stroke-linejoin="round" stroke-linecap="butt" stroke-miterlimit="4" stroke-width="2.5263" d="M6.029 9.398v2.813M24.269 8.691lNaNNaN"></path>
<path d="M6.029 15.006c0.775 0 1.398 0.623 1.398 1.415 0 0.775-0.623 1.398-1.398 1.398s-1.398-0.623-1.398-1.398c0-0.792 0.623-1.415 1.398-1.415z"></path>
<path d="M6.029 19.217c0.775 0 1.398 0.623 1.398 1.415 0 0.775-0.623 1.398-1.398 1.398s-1.398-0.623-1.398-1.398c0-0.792 0.623-1.415 1.398-1.415z"></path>
</svg>
