<svg width="19.000000" height="14.000000" viewBox="0 0 19 14" fill="none" xmlns="http://www.w3.org/2000/svg" xmlns:xlink="http://www.w3.org/1999/xlink">
	<desc>
			Created with Pixso.
	</desc>
	<defs/>
	<path id="Vector" d="M16.5 0.16C16.72 0.16 16.93 0.25 17.08 0.41C17.24 0.56 17.33 0.77 17.33 1L17.33 11.83C17.33 12.05 17.24 12.26 17.08 12.42C16.93 12.57 16.72 12.66 16.5 12.66L6.5 12.66L1.5 12.66C1.27 12.66 1.06 12.57 0.91 12.42C0.75 12.26 0.66 12.05 0.66 11.83L0.66 1C0.66 0.77 0.75 0.56 0.91 0.41C1.06 0.25 1.27 0.16 1.5 0.16L6.5 0.16L16.5 0.16ZM6.5 0.16L6.5 " stroke="#101828" stroke-opacity="1.000000" stroke-width="1.500000"/>
	<path id="Vector" d="M3.58 3.08L3.58 4.75M14.41 2.66L9.41 " stroke="#101828" stroke-opacity="1.000000" stroke-width="1.500000" stroke-linejoin="round"/>
	<path id="Vector" d="M3.58 6.41C4.04 6.41 4.41 6.78 4.41 7.25C4.41 7.71 4.04 8.08 3.58 8.08C3.12 8.08 2.75 7.71 2.75 7.25C2.75 6.78 3.12 6.41 3.58 6.41Z" fill="#101828" fill-opacity="1.000000" fill-rule="evenodd"/>
	<path id="Vector" d="M3.58 8.91C4.04 8.91 4.41 9.28 4.41 9.75C4.41 10.21 4.04 10.58 3.58 10.58C3.12 10.58 2.75 10.21 2.75 9.75C2.75 9.28 3.12 8.91 3.58 8.91Z" fill="#101828" fill-opacity="1.000000" fill-rule="evenodd"/>
</svg>
