<!-- Generated by IcoMoon.io -->
<svg version="1.1" xmlns="http://www.w3.org/2000/svg" width="32" height="32" viewBox="0 0 32 32">
<title>Microwave</title>
<path fill="none" stroke-linejoin="round" stroke-linecap="butt" stroke-miterlimit="4" stroke-width="2.3579" stroke="#000" d="M0.707 4.328c-0.32 0-0.623 0.118-0.842 0.354-0.236 0.219-0.354 0.522-0.354 0.842v19.251c0 0.32 0.118 0.623 0.354 0.842 0.219 0.236 0.522 0.354 0.842 0.354h28.884c0.32 0 0.623-0.118 0.842-0.354 0.236-0.219 0.354-0.522 0.354-0.842v-19.251c0-0.32-0.118-0.623-0.354-0.842-0.219-0.236-0.522-0.354-0.842-0.354h-28.884z"></path>
<path fill="none" stroke-linejoin="round" stroke-linecap="butt" stroke-miterlimit="4" stroke-width="2.3579" stroke="#000" d="M5.524 9.128c-0.32 0-0.623 0.135-0.842 0.354-0.236 0.236-0.354 0.539-0.354 0.859v9.617c0 0.32 0.118 0.623 0.354 0.859 0.219 0.219 0.522 0.354 0.842 0.354h13.238c0.32 0 0.623-0.135 0.842-0.354 0.236-0.236 0.354-0.539 0.354-0.859v-9.617c0-0.32-0.118-0.623-0.354-0.859-0.219-0.219-0.522-0.354-0.842-0.354h-13.238zM24.775 10.341h1.196M24.775 15.158lNaNNaN"></path>
</svg>
