<!-- Generated by IcoMoon.io -->
<svg version="1.1" xmlns="http://www.w3.org/2000/svg" width="32" height="32" viewBox="0 0 32 32">
<title>Red-heart</title>
<path fill="#e44848" d="M27.787 6.147c-0.693-0.693-1.493-1.227-2.387-1.6-0.893-0.36-1.84-0.56-2.8-0.56-0.973 0-1.92 0.2-2.813 0.56-0.893 0.373-1.693 0.907-2.373 1.6l-1.413 1.413-1.413-1.413c-1.387-1.387-3.253-2.16-5.187-2.16-1.947 0-3.813 0.773-5.187 2.16-1.387 1.373-2.16 3.24-2.16 5.187 0 1.933 0.773 3.8 2.16 5.187l11.787 11.787 11.787-11.787c0.68-0.693 1.213-1.493 1.587-2.387 0.36-0.893 0.56-1.84 0.56-2.8 0-0.973-0.2-1.92-0.56-2.813-0.373-0.893-0.907-1.693-1.587-2.373z"></path>
<path fill="none" stroke="#e44848" stroke-linejoin="round" stroke-linecap="butt" stroke-miterlimit="4" stroke-width="3.0667" d="M25.4 4.547c-0.893-0.36-1.84-0.56-2.8-0.56-0.973 0-1.92 0.2-2.813 0.56-0.893 0.373-1.693 0.907-2.373 1.6l-1.413 1.413-1.413-1.413c-1.387-1.387-3.253-2.16-5.187-2.16-1.947 0-3.813 0.773-5.187 2.16-1.387 1.373-2.16 3.24-2.16 5.187 0 1.933 0.773 3.8 2.16 5.187l11.787 11.787 11.787-11.787c0.68-0.693 1.213-1.493 1.587-2.387 0.36-0.893 0.56-1.84 0.56-2.8 0-0.973-0.2-1.92-0.56-2.813-0.373-0.893-0.907-1.693-1.587-2.373-0.693-0.693-1.493-1.227-2.387-1.6z"></path>
</svg>
