<!-- Generated by IcoMoon.io -->
<svg version="1.1" xmlns="http://www.w3.org/2000/svg" width="32" height="32" viewBox="0 0 32 32">
<title>Toilet</title>
<path d="M24 4c1.936 0 3.264 1.632 4.032 3.312 0.768 1.648 1.232 3.808 1.28 6.144l0.016 0.544v12.656c0 0.176-0.032 0.368-0.112 0.528-0.064 0.16-0.176 0.32-0.304 0.432-0.128 0.128-0.272 0.224-0.448 0.288-0.16 0.064-0.352 0.096-0.528 0.096l-0.16-0.032-3.776-0.624-3.792 0.624c-0.16 0.032-0.32 0.032-0.48 0l-0.16-0.048-3.568-1.184-3.584 1.184c-0.192 0.064-0.384 0.080-0.592 0.064-0.192-0.032-0.384-0.096-0.544-0.192-0.176-0.112-0.304-0.256-0.416-0.416-0.112-0.176-0.176-0.368-0.192-0.56l-0.016-0.16v-3.904c-0.704 0.736-1.584 1.248-2.656 1.248-1.952 0-3.28-1.648-4.048-3.328-0.816-1.776-1.296-4.144-1.296-6.672 0-2.544 0.48-4.912 1.296-6.688 0.736-1.6 1.984-3.168 3.776-3.312h16.272zM24 6.656h-12.304c0.128 0.208 0.24 0.432 0.336 0.656 0.816 1.776 1.296 4.144 1.296 6.688v10.816l2.24-0.752c0.272-0.096 0.576-0.096 0.848 0l3.68 1.232 3.68-0.624c0.144-0.016 0.288-0.016 0.432 0l2.448 0.416v-11.088c0-2.256-0.416-4.224-1.040-5.584-0.688-1.472-1.36-1.76-1.616-1.76zM8 6.656c-0.272 0-0.944 0.288-1.632 1.76-0.624 1.36-1.040 3.328-1.040 5.584 0 2.24 0.416 4.208 1.040 5.568 0.688 1.472 1.36 1.76 1.632 1.76 0.256 0 0.928-0.288 1.616-1.76 0.624-1.36 1.040-3.328 1.040-5.568 0-2.256-0.416-4.224-1.040-5.584-0.688-1.472-1.36-1.76-1.616-1.76zM8 11.328c0.736 0 1.328 1.184 1.328 2.672 0 1.472-0.592 2.656-1.328 2.656s-1.344-1.184-1.344-2.656c0-1.488 0.608-2.672 1.344-2.672z"></path>
</svg>
