<!-- Generated by IcoMoon.io -->
<svg version="1.1" xmlns="http://www.w3.org/2000/svg" width="32" height="32" viewBox="0 0 32 32">
<title>user</title>
<path fill="none" stroke-linejoin="round" stroke-linecap="round" stroke-miterlimit="4" stroke-width="2" stroke="#000" d="M16 14.667c2.945 0 5.333-2.388 5.333-5.333s-2.388-5.333-5.333-5.333c-2.946 0-5.333 2.388-5.333 5.333s2.388 5.333 5.333 5.333z"></path>
<path fill="none" stroke-linejoin="round" stroke-linecap="round" stroke-miterlimit="4" stroke-width="2" stroke="#000" d="M5.333 28h21.333v-1.011c-0.019-1.421-0.495-2.816-1.385-4.053s-2.163-2.277-3.702-3.022c-1.539-0.745-3.293-1.171-5.097-1.238-0.161-0.006-0.322-0.009-0.482-0.009s-0.321 0.003-0.482 0.009c-1.805 0.067-3.559 0.493-5.097 1.238s-2.812 1.785-3.702 3.022c-0.89 1.237-1.366 2.632-1.385 4.053v1.011z"></path>
</svg>
