<!-- Generated by IcoMoon.io -->
<svg version="1.1" xmlns="http://www.w3.org/2000/svg" width="32" height="32" viewBox="0 0 32 32">
<title>Users</title>
<path d="M9.056 24.128h-4.4c-0.256 0-0.4-0.128-0.528-0.272-0.128-0.128-0.272-0.4-0.128-0.656 0.8-2.272 2.8-3.6 5.056-3.6 2.8 0 5.072-2.4 5.072-5.2s-2.272-5.472-5.072-5.472c-2.8 0-5.056 2.4-5.056 5.328 0 1.344 0.528 2.672 1.328 3.6-1.728 0.944-3.072 2.4-3.872 4.4-0.256 0.944-0.128 2.144 0.544 3.072 0.656 0.928 1.6 1.472 2.656 1.472h4.4c0.8 0 1.344-0.544 1.344-1.344s-0.544-1.328-1.344-1.328zM6.656 14.256c0-1.456 1.072-2.528 2.4-2.528 1.344 0 2.4 1.2 2.4 2.528 0 1.472-1.056 2.544-2.4 2.544-1.328 0-2.4-1.2-2.4-2.544z"></path>
<path d="M30.528 21.456c-0.928-2.528-2.8-4.4-4.928-5.456 1.2-1.072 1.856-2.672 1.856-4.544 0-3.456-2.656-6.256-5.856-6.256s-5.872 2.8-5.872 6.256c0 1.744 0.672 3.344 1.872 4.544-2.144 1.056-4 2.928-4.944 5.456-0.656 1.2-0.4 2.544 0.272 3.6 0.672 1.072 1.872 1.6 3.072 1.6h11.056c1.2 0 2.4-0.656 3.072-1.6 0.8-1.056 0.928-2.4 0.4-3.6zM18.256 11.6c0-2 1.472-3.6 3.2-3.6 1.744 0 3.2 1.6 3.2 3.6s-1.456 3.6-3.2 3.6c-1.728 0-3.2-1.744-3.2-3.6zM27.856 23.6c-0.128 0.128-0.4 0.528-0.8 0.528h-11.056c-0.544 0-0.8-0.4-0.8-0.528-0.144-0.144-0.4-0.672-0.144-1.2 1.072-2.8 3.744-4.672 6.544-4.672s5.456 1.872 6.528 4.672c0.128 0.528-0.128 1.056-0.272 1.2z"></path>
</svg>
