<!-- Generated by IcoMoon.io -->
<svg version="1.1" xmlns="http://www.w3.org/2000/svg" width="32" height="32" viewBox="0 0 32 32">
<title>Vector</title>
<path d="M27.669 6.443l0.021-0.021-6.613-6.613-1.877 1.899 3.733 3.733c-1.664 0.64-2.859 2.24-2.859 4.16 0 0.576 0.128 1.152 0.341 1.685 0.235 0.555 0.555 1.024 0.96 1.451 0.832 0.832 1.963 1.301 3.157 1.301 0.64 0 1.216-0.149 1.771-0.384v12.821c0 0.469-0.192 0.917-0.533 1.259-0.32 0.341-0.768 0.533-1.237 0.533-0.491 0-0.939-0.192-1.259-0.533-0.341-0.341-0.533-0.789-0.533-1.259v-8c0-0.939-0.363-1.835-1.045-2.517-0.661-0.661-1.557-1.024-2.496-1.024h-1.792v-12.459c0-0.939-0.363-1.835-1.045-2.517-0.661-0.661-1.557-1.024-2.496-1.024h-10.667c-0.96 0-1.856 0.363-2.517 1.024-0.683 0.683-1.045 1.579-1.045 2.517v28.459h17.771v-13.333h2.667v8.875c0 1.173 0.469 2.304 1.301 3.136 0.832 0.853 1.963 1.323 3.157 1.323 0.576 0 1.152-0.128 1.685-0.341 0.555-0.235 1.024-0.555 1.451-0.981 0.405-0.405 0.747-0.896 0.96-1.429s0.341-1.109 0.341-1.707v-16.875c0-1.237-0.491-2.368-1.301-3.157zM13.867 17.6v9.771h-10.667v-12.437h10.667v2.667zM13.867 11.371h-10.667v-8.896h10.667v8.896zM24.533 11.371c-0.491 0-0.939-0.192-1.259-0.533-0.341-0.32-0.533-0.768-0.533-1.237 0-0.491 0.192-0.939 0.533-1.259 0.32-0.341 0.768-0.533 1.259-0.533 0.469 0 0.917 0.192 1.237 0.533 0.341 0.32 0.533 0.768 0.533 1.259 0 0.469-0.192 0.917-0.533 1.237-0.32 0.341-0.768 0.533-1.237 0.533z"></path>
</svg>
