<svg width="32.000000" height="32.000000" viewBox="0 0 16 17" fill="none" xmlns="http://www.w3.org/2000/svg" xmlns:xlink="http://www.w3.org/1999/xlink">
	<desc>
			Created with Pixso.
	</desc>
	<defs/>
	<path id="Vector" d="M12.16 15.5L13 15.5C13.44 15.5 13.86 15.32 14.17 15.01C14.49 14.69 14.66 14.27 14.66 13.83C14.66 13.39 14.49 12.96 14.17 12.65C13.86 12.34 13.44 12.16 13 12.16L12.16 12.16L12.16 15.5ZM12.16 7.16L13.41 7.16C13.74 7.16 14.06 7.03 14.3 6.8C14.53 6.56 14.66 6.24 14.66 5.91C14.66 5.58 14.53 5.26 14.3 5.03C14.06 4.79 13.74 4.66 13.41 4.66L12.16 4.66L12.16 8.83M0.98 3.34C1.3 3.65 1.72 3.83 2.16 3.83C2.6 3.83 3.03 3.65 3.34 3.34C3.65 3.03 3.83 2.6 3.83 2.16C3.83 1.72 3.65 1.3 3.34 0.98C3.03 0.67 2.6 0.5 2.16 0.5C1.72 0.5 1.3 0.67 0.98 0.98C0.67 1.3 0.5 1.72 0.5 2.16C0.5 2.6 0.67 3.03 0.98 3.34Z" stroke="#101828" stroke-opacity="1.000000" stroke-width="1.500000" stroke-linejoin="round" stroke-linecap="round"/>
	<path id="Vector" d="M2.16 3.83L2.16 6.33C2.16 6.55 2.25 6.76 2.41 6.92C2.56 7.07 2.77 7.16 3 7.16L5.5 7.16L8.83 7.16M5.5 7.16L5.5 13C5.5 13.22 5.58 13.43 5.74 13.58C5.9 13.74 6.11 13.83 6.33 13.83L8.83Z" stroke="#101828" stroke-opacity="1.000000" stroke-width="1.500000" stroke-linejoin="round"/>
</svg>
