<!-- Generated by IcoMoon.io -->
<svg version="1.1" xmlns="http://www.w3.org/2000/svg" width="32" height="32" viewBox="0 0 32 32">
<title>ion_water-outline</title>
<path fill="none" stroke-linejoin="miter" stroke-linecap="butt" stroke-miterlimit="4" stroke-width="2.4" stroke="#000" d="M16 28.992c-5.536 0-9.008-3.472-9.008-8.992 0-5.936 6.448-13.936 8.432-16.256 0.064-0.080 0.16-0.144 0.256-0.192s0.208-0.064 0.32-0.064c0.096 0 0.208 0.016 0.304 0.064s0.192 0.112 0.256 0.192c1.984 2.32 8.432 10.32 8.432 16.256 0 5.52-3.472 8.992-8.992 8.992z"></path>
<path fill="none" stroke-linejoin="round" stroke-linecap="round" stroke-miterlimit="4" stroke-width="2.4" stroke="#000" d="M21.488 20.496c0 1.184-0.464 2.336-1.312 3.184-19.799-23.201-19.821-23.192NaNNaNlNaNNaN"></path>
</svg>
