<svg width="17.000000" height="17.000000" viewBox="0 0 17 17" fill="none" xmlns="http://www.w3.org/2000/svg" xmlns:xlink="http://www.w3.org/1999/xlink">
	<desc>
			Created with Pixso.
	</desc>
	<defs/>
	<path id="Vector" d="M0.64 3.97C1.61 3 3.19 3 6.33 3L9.66 3C12.8 3 14.38 3 15.35 3.97C16.33 4.95 16.33 6.52 16.33 9.66C16.33 12.8 16.33 14.38 15.35 15.35C14.38 16.33 12.8 16.33 9.66 16.33L6.33 16.33C3.19 16.33 1.61 16.33 0.64 15.35C-0.34 14.38 -0.34 12.8 -0.34 9.66C-0.34 6.52 -0.34 4.95 0.64 3.97Z" stroke="#101828" stroke-opacity="1.000000" stroke-width="1.300000"/>
	<path id="Vector" d="M2.65 5.98C2.96 5.67 3.39 5.5 3.83 5.5L12.16 5.5C12.6 5.5 13.03 5.67 13.34 5.98C13.65 6.3 13.83 6.72 13.83 7.16C13.83 7.6 13.65 8.03 13.34 8.34C13.03 8.65 12.6 8.83 12.16 8.83L3.83 8.83C3.39 8.83 2.96 8.65 2.65 8.34C2.34 8.03 2.16 7.6 2.16 7.16C2.16 6.72 2.34 6.3 2.65 5.98ZM5.13 13.05C4.89 13.28 4.58 13.41 4.25 13.41C3.91 13.41 3.6 13.28 3.36 13.05C3.13 12.81 3 12.49 3 12.16C3 11.83 3.13 11.51 3.36 11.28C3.6 11.04 3.91 10.91 4.25 10.91C4.58 10.91 4.89 11.04 5.13 11.28C5.36 11.51 5.5 11.83 5.5 12.16C5.5 12.49 5.36 12.81 5.13 13.05Z" stroke="#101828" stroke-opacity="1.000000" stroke-width="1.300000"/>
	<path id="Vector" d="M10.5 7.58L10.5 8.83M8.83 12.16L13 12.16M3.41 3L10.5 " stroke="#101828" stroke-opacity="1.000000" stroke-width="1.300000"/>
</svg>
