<!-- Generated by IcoMoon.io -->
<svg version="1.1" xmlns="http://www.w3.org/2000/svg" width="32" height="32" viewBox="0 0 32 32">
<title>Radio</title>
<path fill="none" stroke-linejoin="miter" stroke-linecap="butt" stroke-miterlimit="4" stroke-width="2.4471" stroke="#000" d="M1.205 7.473c1.826-1.826 4.8-1.826 10.711-1.826h6.268c5.911 0 8.885 0 10.711 1.826 1.845 1.845 1.845 4.8 1.845 10.711s0 8.885-1.845 10.711c-1.826 1.845-4.8 1.845-10.711 1.845h-6.268c-5.911 0-8.885 0-10.711-1.845-1.845-1.826-1.845-4.8-1.845-10.711s0-8.866 1.845-10.711z"></path>
<path fill="none" stroke-linejoin="miter" stroke-linecap="butt" stroke-miterlimit="4" stroke-width="2.4471" stroke="#000" d="M4.988 11.256c0.584-0.584 1.393-0.904 2.221-0.904h15.68c0.828 0 1.638 0.32 2.221 0.904 0.584 0.602 0.922 1.393 0.922 2.221s-0.339 1.638-0.922 2.221c-0.584 0.584-1.393 0.922-2.221 0.922h-15.68c-0.828 0-1.638-0.339-2.221-0.922s-0.922-1.393-0.922-2.221c0-0.828 0.339-1.619 0.922-2.221zM9.656 24.565c-0.452 0.433-1.035 0.678-1.656 0.678-0.64 0-1.224-0.245-1.675-0.678-0.433-0.452-0.678-1.054-0.678-1.675s0.245-1.224 0.678-1.656c0.452-0.452 1.035-0.696 1.675-0.696 0.621 0 1.205 0.245 1.656 0.696 0.433 0.433 0.696 1.035 0.696 1.656s-0.264 1.224-0.696 1.675z"></path>
<path fill="none" stroke-linejoin="miter" stroke-linecap="butt" stroke-miterlimit="4" stroke-width="2.4471" stroke="#000" d="M19.765 14.268v2.353M16.621 22.889h7.849M6.419 5.647lNaNNaN"></path>
</svg>
