<!-- Generated by IcoMoon.io -->
<svg version="1.1" xmlns="http://www.w3.org/2000/svg" width="32" height="32" viewBox="0 0 32 32">
<title>Bed</title>
<path fill="none" stroke-linejoin="round" stroke-linecap="round" stroke-miterlimit="4" stroke-width="2.24" stroke="#000" d="M6 14.992v-6.496c0-0.672 0.256-1.296 0.72-1.776 0.48-0.464 1.104-0.72 1.776-0.72h14.992c0.672 0 1.296 0.256 1.776 0.72 0.464 0.48 0.72 1.104 0.736 1.776v6.496h-20zM2.992 26v-7.008c0-1.056 0.432-2.080 1.168-2.832 0.752-0.736 1.776-1.168 2.832-1.168h18c1.056 0 2.080 0.432 2.832 1.168 0.736 0.752 1.168 1.776 1.168 2.832lNaNNaN"></path>
<path fill="none" stroke-linejoin="round" stroke-linecap="butt" stroke-miterlimit="4" stroke-width="2.24" stroke="#000" d="M2.992 26v-0.512c0-0.4 0.16-0.768 0.448-1.056 0.272-0.288 0.656-0.432 1.056-0.432h22.992c0.4 0 0.784 0.144 1.056 0.432 0.288 0.288 0.448 0.656 0.448 1.056v0.512M6.992 14.992v-0.992c0-0.544 0.208-1.040 0.592-1.424 0.368-0.368 0.88-0.576 1.408-0.576h5.008c0.528 0 1.024 0.208 1.408 0.576 0.368 0.384 0.576 0.88 0.592 1.424v0.992M16 14c0-0.544 0.208-1.040 0.576-1.424 0.384-0.368 0.88-0.576 1.424-0.576h4.992c0.528 0 1.040 0.208 1.408 0.576 0.384 0.384 0.592 0.88 0.592 1.424lNaNNaN"></path>
</svg>
