<!-- Generated by IcoMoon.io -->
<svg version="1.1" xmlns="http://www.w3.org/2000/svg" width="32" height="32" viewBox="0 0 32 32">
<title>CD</title>
<path fill="none" stroke-linejoin="miter" stroke-linecap="butt" stroke-miterlimit="4" stroke-width="2.8235" stroke="#000" d="M15.059 29.176c-7.812 0-14.118-6.325-14.118-14.118 0-7.812 6.306-14.118 14.118-14.118 7.793 0 14.118 6.306 14.118 14.118 0 7.793-6.325 14.118-14.118 14.118z"></path>
<path fill="none" stroke-linejoin="miter" stroke-linecap="round" stroke-miterlimit="4" stroke-width="2.8235" stroke="#000" d="M6.419 15.059c-6.312-14.888-6.248-14.952NaNNaNlNaNNaN"></path>
<path fill="none" stroke-linejoin="miter" stroke-linecap="butt" stroke-miterlimit="4" stroke-width="2.8235" stroke="#000" d="M15.059 18.974c-2.184 0-3.934-1.751-3.934-3.915 0-2.184 1.751-3.934 3.934-3.934 2.165 0 3.915 1.751 3.915 3.934 0 2.165-1.751 3.915-3.915 3.915z"></path>
</svg>
