<!-- Generated by IcoMoon.io -->
<svg version="1.1" xmlns="http://www.w3.org/2000/svg" width="32" height="32" viewBox="0 0 32 32">
<title>Container</title>
<path fill="none" stroke-linejoin="round" stroke-linecap="round" stroke-miterlimit="4" stroke-width="2.8235" stroke="#000" d="M23.831 29.176h1.581c0.828 0 1.619-0.339 2.202-0.922 0.602-0.602 0.922-1.393 0.922-2.221s-0.32-1.638-0.922-2.221c-0.584-0.584-1.374-0.922-2.202-0.922h-1.581v6.287zM23.831 13.478h2.353c0.621 0 1.224-0.245 1.675-0.678 0.433-0.452 0.678-1.054 0.678-1.675s-0.245-1.224-0.678-1.656c-0.452-0.452-1.054-0.696-1.675-0.696h-2.353v7.849M2.786 6.287c0.602 0.584 1.393 0.922 2.221 0.922s1.638-0.339 2.221-0.922c0.584-0.584 0.922-1.393 0.922-2.221s-0.339-1.619-0.922-2.221c-0.584-0.584-1.393-0.904-2.221-0.904s-1.619 0.32-2.221 0.904c-0.584 0.602-0.904 1.393-0.904 2.221s0.32 1.638 0.904 2.221z"></path>
<path fill="none" stroke-linejoin="round" stroke-linecap="butt" stroke-miterlimit="4" stroke-width="2.8235" stroke="#000" d="M5.007 7.209v4.706c0 0.414 0.169 0.809 0.471 1.111 0.282 0.282 0.678 0.452 1.111 0.452h10.974M11.294 13.478v10.993c0 0.414 0.151 0.809 0.452 1.092 0.301 0.301 0.696 0.471 1.111 0.471lNaNNaN"></path>
</svg>
