<!-- Generated by IcoMoon.io -->
<svg version="1.1" xmlns="http://www.w3.org/2000/svg" width="32" height="32" viewBox="0 0 32 32">
<title>map-pin</title>
<path fill="none" stroke-linejoin="round" stroke-linecap="butt" stroke-miterlimit="4" stroke-width="2.4" stroke="#000" d="M16 30.656c0 0-12-8-12-17.328 0-3.184 1.264-6.24 3.504-8.48 2.256-2.256 5.312-3.52 8.496-3.52 3.168 0 6.224 1.264 8.48 3.52 2.24 2.24 3.52 5.296 3.52 8.48 0 9.328-12 17.328-12 17.328z"></path>
<path fill="none" stroke-linejoin="round" stroke-linecap="butt" stroke-miterlimit="4" stroke-width="2.4" stroke="#000" d="M16 17.328c-2.224 0-4-1.792-4-4s1.776-4 4-4c2.208 0 4 1.792 4 4s-1.792 4-4 4z"></path>
</svg>
