<!-- Generated by IcoMoon.io -->
<svg version="1.1" xmlns="http://www.w3.org/2000/svg" width="32" height="32" viewBox="0 0 32 32">
<title>Route</title>
<path d="M6.656 4c-1.472 0-2.656 1.184-2.656 2.656s1.184 2.672 2.656 2.672c1.472 0 2.672-1.2 2.672-2.672s-1.2-2.656-2.672-2.656zM1.328 6.656c0-2.944 2.384-5.328 5.328-5.328s5.344 2.384 5.344 5.328c0 2.944-2.4 5.344-5.344 5.344s-5.328-2.4-5.328-5.344z"></path>
<path d="M25.328 22.656c-1.472 0-2.672 1.2-2.672 2.672s1.2 2.672 2.672 2.672c1.472 0 2.672-1.2 2.672-2.672s-1.2-2.672-2.672-2.672zM20 25.328c0-2.944 2.384-5.328 5.328-5.328s5.328 2.384 5.328 5.328c0 2.944-2.384 5.328-5.328 5.328s-5.328-2.384-5.328-5.328z"></path>
<path d="M13.328 6.656c0-0.736 0.592-1.328 1.328-1.328h8.4c4.128 0 5.616 5.408 1.984 7.424l-15.472 8.8c-1.152 0.656-0.784 2.448 0.688 2.448h7.072c0.736 0 1.328 0.592 1.328 1.328s-0.592 1.328-1.328 1.328h-7.072c-4.128 0-5.616-5.408-1.984-7.424l15.472-8.8c1.168-0.656 0.784-2.432-0.688-2.432h-8.4c-0.736 0-1.328-0.608-1.328-1.344z"></path>
</svg>
